<?xml version="1.0" standalone="no"?>
<!DOCTYPE svg PUBLIC "-//W3C//DTD SVG 20010904//EN"
 "http://www.w3.org/TR/2001/REC-SVG-20010904/DTD/svg10.dtd">
<svg version="1.0" xmlns="http://www.w3.org/2000/svg"
 width="512.000000pt" height="512.000000pt" viewBox="0 0 512.000000 512.000000"
 preserveAspectRatio="xMidYMid meet">

<g transform="translate(0.000000,512.000000) scale(0.100000,-0.100000)"
fill="#000000" stroke="none">
<path d="M95 5106 c-41 -18 -83 -69 -90 -109 -3 -18 -4 -1126 -3 -2464 l3
-2432 21 -27 c11 -15 33 -37 48 -48 l27 -21 2459 0 2459 0 27 21 c15 11 37 33
48 48 l21 27 0 2459 0 2459 -21 27 c-11 15 -33 37 -48 48 l-27 21 -2447 2
c-2019 2 -2452 0 -2477 -11z m865 -626 l0 -320 -320 0 -320 0 0 320 0 320 320
0 320 0 0 -320z m1920 0 l0 -320 -320 0 -320 0 0 320 0 320 320 0 320 0 0
-320z m960 0 l0 -320 -320 0 -320 0 0 320 0 320 320 0 320 0 0 -320z m960 0
l0 -320 -320 0 -320 0 0 320 0 320 320 0 320 0 0 -320z m-3840 -960 l0 -320
-320 0 -320 0 0 320 0 320 320 0 320 0 0 -320z m960 0 l0 -320 -320 0 -320 0
0 320 0 320 320 0 320 0 0 -320z m960 0 l0 -320 -320 0 -320 0 0 320 0 320
320 0 320 0 0 -320z m-1920 -960 l0 -320 -320 0 -320 0 0 320 0 320 320 0 320
0 0 -320z m3840 0 l0 -320 -320 0 -320 0 0 320 0 320 320 0 320 0 0 -320z
m-3840 -960 l0 -320 -320 0 -320 0 0 320 0 320 320 0 320 0 0 -320z m1920 0
l0 -320 -320 0 -320 0 0 320 0 320 320 0 320 0 0 -320z m960 0 l0 -320 -320 0
-320 0 0 320 0 320 320 0 320 0 0 -320z m960 0 l0 -320 -320 0 -320 0 0 320 0
320 320 0 320 0 0 -320z m-3840 -960 l0 -320 -320 0 -320 0 0 320 0 320 320 0
320 0 0 -320z m960 0 l0 -320 -320 0 -320 0 0 320 0 320 320 0 320 0 0 -320z
m960 0 l0 -320 -320 0 -320 0 0 320 0 320 320 0 320 0 0 -320z m1920 0 l0
-320 -320 0 -320 0 0 320 0 320 320 0 320 0 0 -320z"/>
</g>
</svg>
